<svg width="141" height="40" viewBox="0 0 141 40" fill="none" xmlns="http://www.w3.org/2000/svg">
<rect y="4" width="141" height="32" rx="16" fill="#343839"/>
<g filter="url(#filter0_d_727_272)">
<rect y="4" width="105" height="32" rx="16" fill="#B8C0B9" shape-rendering="crispEdges"/>
<path d="M12.4545 25.5H9.00426V15.3182H12.5241C13.535 15.3182 14.4034 15.522 15.1293 15.9297C15.8584 16.334 16.4186 16.9157 16.8097 17.6747C17.2008 18.4337 17.3963 19.3419 17.3963 20.3991C17.3963 21.4598 17.1991 22.3712 16.8047 23.1335C16.4136 23.8958 15.8485 24.4808 15.1094 24.8885C14.3736 25.2962 13.4886 25.5 12.4545 25.5ZM10.8487 23.9041H12.3651C13.0743 23.9041 13.666 23.7749 14.1399 23.5163C14.6139 23.2545 14.9702 22.8651 15.2088 22.348C15.4474 21.8277 15.5668 21.178 15.5668 20.3991C15.5668 19.6203 15.4474 18.974 15.2088 18.4602C14.9702 17.9432 14.6172 17.5571 14.1499 17.3018C13.6858 17.0433 13.1091 16.9141 12.4197 16.9141H10.8487V23.9041ZM22.4499 25.6491C21.6843 25.6491 21.0231 25.4901 20.4663 25.1719C19.9128 24.8504 19.4869 24.3963 19.1886 23.8097C18.8903 23.2197 18.7411 22.5253 18.7411 21.7266C18.7411 20.9411 18.8903 20.2517 19.1886 19.6584C19.4902 19.0618 19.9111 18.5978 20.4513 18.2663C20.9916 17.9316 21.6263 17.7642 22.3555 17.7642C22.8261 17.7642 23.2702 17.8404 23.6879 17.9929C24.1088 18.142 24.48 18.3741 24.8015 18.6889C25.1263 19.0038 25.3815 19.4048 25.5671 19.892C25.7527 20.3759 25.8455 20.9527 25.8455 21.6222V22.174H19.5863V20.9609H24.1204C24.1171 20.6162 24.0425 20.3097 23.8967 20.0412C23.7508 19.7694 23.547 19.5556 23.2852 19.3999C23.0266 19.2441 22.725 19.1662 22.3803 19.1662C22.0124 19.1662 21.6893 19.2557 21.4109 19.4347C21.1325 19.6103 20.9154 19.8423 20.7596 20.1307C20.6071 20.4157 20.5292 20.7289 20.5259 21.0703V22.1293C20.5259 22.5734 20.6071 22.9545 20.7695 23.2727C20.9319 23.5876 21.159 23.8295 21.4506 23.9986C21.7423 24.1643 22.0837 24.2472 22.4748 24.2472C22.7366 24.2472 22.9736 24.2107 23.1857 24.1378C23.3978 24.0616 23.5818 23.9505 23.7376 23.8047C23.8933 23.6589 24.011 23.4782 24.0906 23.2628L25.771 23.4517C25.6649 23.8958 25.4627 24.2836 25.1644 24.6151C24.8694 24.9432 24.4916 25.1984 24.0309 25.3807C23.5702 25.5597 23.0432 25.6491 22.4499 25.6491ZM33.4036 19.8821L31.763 20.0611C31.7166 19.8954 31.6354 19.7396 31.5194 19.5938C31.4067 19.4479 31.2542 19.3303 31.062 19.2408C30.8697 19.1513 30.6344 19.1065 30.356 19.1065C29.9815 19.1065 29.6666 19.1877 29.4114 19.3501C29.1595 19.5125 29.0352 19.723 29.0385 19.9815C29.0352 20.2036 29.1164 20.3842 29.2821 20.5234C29.4512 20.6626 29.7296 20.777 30.1174 20.8665L31.4199 21.1449C32.1425 21.3007 32.6794 21.5476 33.0307 21.8857C33.3854 22.2237 33.5643 22.6662 33.5676 23.2131C33.5643 23.6937 33.4235 24.1179 33.1451 24.4858C32.87 24.8504 32.4872 25.1354 31.9966 25.3409C31.5061 25.5464 30.9426 25.6491 30.3063 25.6491C29.3716 25.6491 28.6193 25.4536 28.0492 25.0625C27.4791 24.6681 27.1394 24.1196 27.03 23.4169L28.785 23.2479C28.8645 23.5926 29.0336 23.8527 29.2921 24.0284C29.5506 24.2041 29.887 24.2919 30.3013 24.2919C30.7289 24.2919 31.0719 24.2041 31.3304 24.0284C31.5923 23.8527 31.7232 23.6357 31.7232 23.3771C31.7232 23.1584 31.6387 22.9777 31.4696 22.8352C31.3039 22.6927 31.0454 22.5833 30.6941 22.5071L29.3915 22.2337C28.659 22.0812 28.1171 21.8243 27.7658 21.4631C27.4145 21.0985 27.2405 20.6378 27.2438 20.081C27.2405 19.6103 27.3681 19.2027 27.6266 18.858C27.8884 18.5099 28.2514 18.2415 28.7154 18.0526C29.1827 17.8603 29.7213 17.7642 30.3311 17.7642C31.226 17.7642 31.9303 17.9548 32.4441 18.3359C32.9611 18.7171 33.281 19.2325 33.4036 19.8821ZM36.6923 23.1037L36.6873 20.9311H36.9757L39.72 17.8636H41.823L38.4473 21.6222H38.0744L36.6923 23.1037ZM35.0517 25.5V15.3182H36.8514V25.5H35.0517ZM39.8443 25.5L37.3585 22.0249L38.5716 20.7571L41.997 25.5H39.8443ZM46.8356 17.8636V19.2557H42.4457V17.8636H46.8356ZM43.5295 16.0341H45.3292V23.2031C45.3292 23.4451 45.3656 23.6307 45.4386 23.7599C45.5148 23.8859 45.6142 23.9721 45.7369 24.0185C45.8595 24.0649 45.9954 24.0881 46.1445 24.0881C46.2572 24.0881 46.36 24.0798 46.4528 24.0632C46.5489 24.0466 46.6218 24.0317 46.6715 24.0185L46.9748 25.4254C46.8787 25.4586 46.7411 25.495 46.5621 25.5348C46.3865 25.5746 46.171 25.5978 45.9158 25.6044C45.4651 25.6177 45.0591 25.5497 44.6978 25.4006C44.3365 25.2481 44.0498 25.0128 43.8377 24.6946C43.6289 24.3764 43.5262 23.9787 43.5295 23.5014V16.0341ZM51.5897 25.6491C50.8439 25.6491 50.1976 25.4851 49.6507 25.157C49.1039 24.8288 48.6796 24.3698 48.378 23.7798C48.0797 23.1899 47.9306 22.5005 47.9306 21.7116C47.9306 20.9228 48.0797 20.2318 48.378 19.6385C48.6796 19.0452 49.1039 18.5845 49.6507 18.2564C50.1976 17.9283 50.8439 17.7642 51.5897 17.7642C52.3354 17.7642 52.9817 17.9283 53.5286 18.2564C54.0755 18.5845 54.498 19.0452 54.7963 19.6385C55.098 20.2318 55.2488 20.9228 55.2488 21.7116C55.2488 22.5005 55.098 23.1899 54.7963 23.7798C54.498 24.3698 54.0755 24.8288 53.5286 25.157C52.9817 25.4851 52.3354 25.6491 51.5897 25.6491ZM51.5996 24.2074C52.004 24.2074 52.342 24.0964 52.6138 23.8743C52.8856 23.6489 53.0878 23.3473 53.2203 22.9695C53.3562 22.5916 53.4242 22.1707 53.4242 21.7067C53.4242 21.2393 53.3562 20.8168 53.2203 20.4389C53.0878 20.0578 52.8856 19.7545 52.6138 19.5291C52.342 19.3037 52.004 19.1911 51.5996 19.1911C51.1853 19.1911 50.8406 19.3037 50.5655 19.5291C50.2937 19.7545 50.0899 20.0578 49.954 20.4389C49.8214 20.8168 49.7551 21.2393 49.7551 21.7067C49.7551 22.1707 49.8214 22.5916 49.954 22.9695C50.0899 23.3473 50.2937 23.6489 50.5655 23.8743C50.8406 24.0964 51.1853 24.2074 51.5996 24.2074ZM56.7763 28.3636V17.8636H58.5462V19.1264H58.6506C58.7434 18.9408 58.8743 18.7436 59.0433 18.5348C59.2124 18.3227 59.4411 18.142 59.7294 17.9929C60.0178 17.8404 60.3857 17.7642 60.8331 17.7642C61.4231 17.7642 61.955 17.915 62.429 18.2166C62.9063 18.5149 63.2841 18.9574 63.5625 19.544C63.8442 20.1274 63.9851 20.8433 63.9851 21.6918C63.9851 22.5303 63.8475 23.2429 63.5724 23.8295C63.2973 24.4162 62.9228 24.8636 62.4489 25.1719C61.9749 25.4801 61.438 25.6342 60.8381 25.6342C60.4006 25.6342 60.0376 25.5613 59.7493 25.4155C59.4609 25.2696 59.2289 25.094 59.0533 24.8885C58.8809 24.6797 58.7467 24.4825 58.6506 24.2969H58.576V28.3636H56.7763ZM58.5412 21.6818C58.5412 22.1757 58.6108 22.6082 58.75 22.9794C58.8925 23.3506 59.0964 23.6406 59.3615 23.8494C59.63 24.0549 59.9548 24.1577 60.3359 24.1577C60.7337 24.1577 61.0668 24.0516 61.3352 23.8395C61.6037 23.6241 61.8059 23.3307 61.9418 22.9595C62.081 22.585 62.1506 22.1591 62.1506 21.6818C62.1506 21.2079 62.0826 20.7869 61.9467 20.419C61.8108 20.0511 61.6087 19.7628 61.3402 19.554C61.0717 19.3452 60.737 19.2408 60.3359 19.2408C59.9515 19.2408 59.625 19.3419 59.3565 19.544C59.0881 19.7462 58.8842 20.0296 58.745 20.3942C58.6091 20.7588 58.5412 21.188 58.5412 21.6818Z" fill="#343839"/>
<path d="M81 28H89M75 14C75 13.4696 75.2107 12.9609 75.5858 12.5858C75.9609 12.2107 76.4696 12 77 12H93C93.5304 12 94.0391 12.2107 94.4142 12.5858C94.7893 12.9609 95 13.4696 95 14V23C95 23.5304 94.7893 24.0391 94.4142 24.4142C94.0391 24.7893 93.5304 25 93 25H77C76.4696 25 75.9609 24.7893 75.5858 24.4142C75.2107 24.0391 75 23.5304 75 23V14Z" stroke="#FC7C3A" stroke-width="2.66667" stroke-linecap="round" stroke-linejoin="round"/>
</g>
<path d="M125 10H117C115.895 10 115 10.8954 115 12V28C115 29.1046 115.895 30 117 30H125C126.105 30 127 29.1046 127 28V12C127 10.8954 126.105 10 125 10Z" stroke="#B8C0B9" stroke-width="2.66667" stroke-linecap="round" stroke-linejoin="round"/>
<path d="M120.95 26H121.05" stroke="#B8C0B9" stroke-width="2.66667" stroke-linecap="round" stroke-linejoin="round"/>
<defs>
<filter id="filter0_d_727_272" x="0" y="0" width="113" height="40" filterUnits="userSpaceOnUse" color-interpolation-filters="sRGB">
<feFlood flood-opacity="0" result="BackgroundImageFix"/>
<feColorMatrix in="SourceAlpha" type="matrix" values="0 0 0 0 0 0 0 0 0 0 0 0 0 0 0 0 0 0 127 0" result="hardAlpha"/>
<feOffset dx="4"/>
<feGaussianBlur stdDeviation="2"/>
<feComposite in2="hardAlpha" operator="out"/>
<feColorMatrix type="matrix" values="0 0 0 0 0 0 0 0 0 0 0 0 0 0 0 0 0 0 0.12 0"/>
<feBlend mode="normal" in2="BackgroundImageFix" result="effect1_dropShadow_727_272"/>
<feBlend mode="normal" in="SourceGraphic" in2="effect1_dropShadow_727_272" result="shape"/>
</filter>
</defs>
</svg>
